<svg xmlns="http://www.w3.org/2000/svg" viewBox="0 0 261.29 166.72"><defs><style>.cls-1{fill:#d1a7dd;}</style></defs><g id="Layer_2" data-name="Layer 2"><g id="Layer_1-2" data-name="Layer 1"><path class="cls-1" d="M108,4.18C90.25-1,68.34-3.53,55.81,10c-13,14.06-8.11,36.9-16,54.31C31.24,83.1,9,93.24,2,112.62c-6.55,18.2,3.94,39.88,21.12,48.77s38.9,6.1,55.31-4.15c8.85-5.53,16.44-13.05,25.75-17.79,16.5-8.42,36-7.09,54.43-9.17a144,144,0,0,0,89-45.21c8.84-9.62,16.75-22.72,12.63-35.12-2.72-8.17-10.29-14-18.45-16.72s-17-2.78-25.56-2.58c-16.8.38-42.54,8.12-57.89,1-8.27-3.86-15-12.37-23.3-16.84A142.14,142.14,0,0,0,108,4.18Z"/></g></g></svg>